<?xml version="1.0" standalone="no"?>
<!DOCTYPE svg PUBLIC "-//W3C//DTD SVG 20010904//EN"
 "http://www.w3.org/TR/2001/REC-SVG-20010904/DTD/svg10.dtd">
<svg version="1.0" xmlns="http://www.w3.org/2000/svg"
 width="900.000000pt" height="900.000000pt" viewBox="0 0 900.000000 900.000000"
 preserveAspectRatio="xMidYMid meet">
<metadata>
Created by potrace 1.11, written by Peter Selinger 2001-2013
</metadata>
<g transform="translate(0.000000,900.000000) scale(0.100000,-0.100000)"
fill="#000000" stroke="none">
<path d="M6755 7801 c-87 -22 -180 -87 -570 -396 -154 -122 -387 -303 -519
-403 -425 -323 -681 -539 -965 -817 -329 -322 -522 -550 -843 -995 -114 -158
-429 -606 -443 -629 -6 -11 34 -56 161 -178 145 -139 174 -163 200 -163 25 0
61 22 165 103 74 56 186 140 249 186 668 488 1280 1108 1753 1776 66 94 163
231 215 305 53 74 197 277 322 450 315 439 314 437 361 529 60 119 66 206 14
229 -29 13 -54 14 -100 3z"/>
<path d="M1400 6979 c-112 -22 -228 -107 -278 -204 -55 -108 -52 16 -52 -2265
0 -2037 1 -2120 19 -2240 11 -68 19 -125 18 -126 -1 -1 -21 -11 -45 -23 -58
-29 -142 -117 -228 -237 -39 -54 -131 -180 -204 -279 -145 -197 -180 -259
-180 -321 0 -125 149 -254 328 -284 48 -7 1077 -10 3662 -8 3476 3 3597 4
3650 22 191 64 283 155 283 276 0 83 -30 137 -184 330 -72 91 -176 225 -231
298 -93 124 -172 202 -218 217 -24 8 -24 17 -5 160 21 159 22 4302 1 4381 -43
164 -169 277 -336 303 -82 14 -493 14 -540 1 -30 -8 -52 -33 -158 -182 l-122
-173 387 -5 c214 -3 394 -9 401 -13 9 -7 12 -444 12 -2132 0 -2090 0 -2124
-19 -2135 -27 -14 -5875 -14 -5902 0 -19 11 -19 45 -19 2135 0 1688 3 2125 13
2132 6 4 721 10 1587 13 l1575 5 56 26 c34 16 92 60 145 109 94 87 238 200
256 200 7 0 6 6 -2 15 -11 13 -224 15 -1819 14 -993 -1 -1826 -5 -1851 -10z
m6041 -5012 c54 -28 104 -93 164 -210 50 -99 55 -125 24 -153 -20 -18 -54 -19
-1056 -22 l-1035 -2 5 -23 c4 -12 9 -51 12 -87 5 -50 3 -70 -8 -85 -15 -20
-29 -20 -1104 -22 -867 -2 -1093 0 -1113 10 -24 12 -25 16 -25 110 l0 97
-1046 2 c-1013 3 -1048 4 -1068 22 -31 28 -27 51 28 164 56 113 107 177 166
203 38 18 159 19 3026 19 l2986 0 44 -23z"/>
<path d="M3035 4401 c-133 -24 -213 -47 -315 -90 -286 -123 -480 -351 -559
-661 -75 -294 -42 -595 111 -999 9 -24 9 -24 35 15 39 59 141 161 207 206 82
57 205 113 476 218 269 105 329 138 421 231 99 100 164 244 234 519 25 95 17
203 -19 263 -14 26 -43 59 -63 74 -20 16 -79 68 -131 116 -52 49 -113 97 -135
108 -53 23 -129 23 -262 0z"/>
</g>
</svg>
